<svg width="99" height="96" viewBox="0 0 99 96" fill="none" xmlns="http://www.w3.org/2000/svg">
<path d="M29.8938 4.40908C30.3089 4.13043 30.6723 3.64067 31.2339 3.78139C30.9481 4.41051 30.2988 4.75812 29.9742 5.35847C28.3265 9.67549 25.2771 9.80688 25.118 11.8248C26.3719 11.0951 27.531 10.2018 28.8223 9.52521C29.2388 9.33128 29.5821 9.0182 29.8407 8.64187C32.759 4.68208 37.5539 3.86628 42.3324 5.03095C42.5952 5.0611 42.6743 5.29522 42.736 5.51643C41.9949 5.61982 41.2408 5.58391 40.5025 5.69312C37.5398 6.5669 36.7427 10.4839 31.9476 9.71194C31.2754 9.73204 30.6175 9.53817 29.9496 9.54821C28.5083 10.2597 25.5973 12.0877 24.9196 12.7972C25.4008 13.0557 25.9581 12.9782 26.4824 12.9509C27.3025 12.8518 27.9575 12.3189 28.6727 11.957C31.0383 10.7241 31.1938 11.0471 34.3621 11.4399C35.4997 11.6697 36.6632 11.4744 37.8108 11.5332C37.7892 11.6036 37.7461 11.7473 37.7246 11.8191C37.0782 12.046 36.3902 12.0762 35.7209 12.1868C34.3808 12.6867 33.2346 13.6533 31.8327 13.9951C29.0936 14.0555 26.3703 13.6303 23.6341 13.7294C21.7784 15.2433 19.9944 16.862 18.4633 18.712C19.5865 19.43 21.5639 17.2399 22.475 16.6638C23.2592 16.085 24.2374 15.848 25.1983 15.8293C30.0761 15.4004 27.4596 15.7455 30.4811 15.0896C30.4783 15.1844 30.4739 15.374 30.4725 15.4688C29.8779 15.756 29.2229 15.8911 28.6268 16.1711C27.5257 16.7727 25.9424 18.5904 24.8665 18.7278C16.8452 19.9645 17.7962 19.5687 17.3059 20.1067C15.7509 22.0167 13.7946 25.0613 13.5786 25.812C15.1854 25.786 16.2416 22.9971 17.7986 22.1982C19.7507 21.1076 20.6246 21.6982 24.4 19.8398C24.4114 19.9317 24.433 20.1156 24.4431 20.2075C23.8571 20.749 23.024 20.9443 22.4811 21.5432C21.2164 22.9317 20.6138 24.0984 19.4777 24.5495C12.4425 27.1011 12.9762 26.7255 12.6275 27.5098C11.7212 29.5163 10.8322 31.5559 10.3265 33.7048C11.5474 33.7492 12.2071 30.8624 13.5798 29.4562C15.0089 28.2195 16.9178 27.7915 18.4432 26.7056C18.9028 26.3867 19.3366 26.0319 19.7991 25.716C19.8106 25.9041 19.8996 26.1268 19.7273 26.2733C19.282 26.786 18.6472 27.1106 18.2651 27.6852C17.5038 28.8343 17.0945 30.2433 16.0575 31.1956C14.123 32.4439 10.3428 34.6914 9.88437 35.246C9.42041 37.1463 9.16191 39.0882 8.92059 41.0271C9.86498 40.9105 9.99215 38.178 11.2072 36.5515C12.3764 35.2359 14.0483 34.5363 15.3338 33.3543C15.6598 33.0541 15.6814 32.5241 16.0965 32.3014C16.1453 32.9621 15.6153 33.4519 15.4932 34.0724C14.6258 38.1703 13.7502 37.8646 10.0495 41.4337C9.66891 41.8129 9.2021 42.1102 8.89182 42.5555C8.78783 43.8053 8.8367 47.6423 9.16613 49.1081H9.40026C9.67748 48.6326 9.92022 48.1041 9.90726 47.5425C9.92725 43.5798 10.6832 44.0199 13.5785 40.7978C14.0137 40.4172 14.1502 39.8412 14.2809 39.3054C14.3427 39.2853 14.4633 39.2465 14.5251 39.2264C14.6041 39.8684 14.2076 40.4271 14.2091 41.0592C13.9995 45.2102 13.5002 43.6134 9.35282 50.2835C9.60275 52.4222 10.1974 54.5192 10.8595 56.5686C10.9026 56.8314 11.3306 56.6849 11.3191 56.4594C11.549 55.3592 11.2861 54.2446 11.1841 53.1473C11.1482 52.7637 10.9586 52.3731 11.1109 51.991C11.6107 50.1755 12.9968 48.8038 13.7537 47.1133C13.9462 46.7441 13.692 46.1567 14.087 45.9283C14.662 53.2605 14.7429 48.7143 11.6021 57.3861C11.5346 57.6246 11.3924 57.8745 11.4613 58.1273C12.191 60.164 13.2237 62.0743 14.2708 63.96C14.3282 63.9772 14.4417 64.0131 14.4977 64.0318C14.5566 63.3969 14.6227 62.7204 14.3498 62.1243C12.7605 58.4377 13.7387 58.5065 15.0895 54.0696C15.2331 53.5295 15.0205 52.9736 15.1498 52.4322C15.3538 52.7352 15.5175 53.0757 15.5233 53.4491C15.6088 54.7095 17.1077 57.4755 16.3937 59.1473C15.7042 61.0217 15.371 62.9981 14.9214 64.9355C16.4836 67.4486 18.9069 70.376 19.545 70.8072C19.7053 69.2021 17.6353 67.3518 17.5787 65.6465C17.6174 64.0493 18.057 62.4894 18.1518 60.8965C18.2193 60.3895 17.9521 59.9356 17.8976 59.4444C18.5626 59.7532 18.485 60.6509 18.8427 61.2068C21.1663 64.6712 20.5733 67.4502 20.2345 71.0642C20.2374 71.2638 20.1167 71.5223 20.3106 71.6732C20.8977 72.2584 24.793 75.9769 25.5733 75.9563C25.5923 74.5891 23.656 72.9421 22.8213 71.7665C21.9882 70.1995 22.3818 68.371 22.1333 66.6877C22.0988 66.1404 21.6349 65.7411 21.6119 65.1925C22.2453 65.6521 22.4292 66.4679 22.9894 66.995C24.0508 68.0479 24.7877 69.3779 25.3794 70.7395C25.75 71.926 25.7945 73.1784 25.9885 74.3993C26.1567 77.0566 26.2981 76.5846 27.0513 77.1657C28.6313 78.151 30.2429 79.1105 31.9521 79.8545C31.9047 79.6678 31.9407 79.4423 31.8042 79.2929C30.9999 78.3421 29.8077 77.8566 28.8985 77.0307C27.8028 75.5285 27.2557 72.0461 26.8029 70.9564C26.5975 70.5873 26.2787 70.3 26.0732 69.9309C26.6033 69.9754 26.8704 70.4767 27.2022 70.8243C27.5898 71.2909 29.5685 72.4684 30.6767 74.5128C31.6939 76.7855 32.4521 80.1648 33.3267 80.5097C35.4022 81.3916 37.548 82.1184 39.7386 82.6584C39.7602 82.5708 39.8033 82.3956 39.8263 82.3094C39.2735 81.4303 37.543 80.8947 35.9554 79.9983C34.2138 79.0219 34.3286 77.3144 33.0655 75.4566C32.7121 74.8806 31.9193 74.6953 31.7024 74.016C32.4852 74.1251 33.0482 74.7312 33.719 75.0918C34.4716 75.5557 35.3291 75.8287 36.0501 76.3443C38.3224 78.1972 39.2546 81.2106 41.5539 83.033C42.4839 83.2695 46.2131 83.8477 46.8827 83.7282C46.8687 82.6182 44.4626 82.6448 42.7087 81.5966C41.1919 80.5869 40.8903 78.4439 39.2299 77.5979C38.9771 77.4557 38.7531 77.2661 38.6022 77.0176C39.3247 77.0765 39.9754 77.4485 40.6691 77.6395C41.653 78.0087 42.7647 78.0532 43.6567 78.6507C45.6302 79.9735 46.5365 82.3507 48.4354 83.7582C48.7542 83.9105 49.1349 83.8258 49.4796 83.8545C49.8947 83.8186 50.3773 83.945 50.7306 83.6635C51.3612 83.2542 51.7418 82.5848 52.2646 82.0634C55.8586 77.424 55.7022 78.5995 58.3257 77.6482C59.0137 77.4198 59.6831 77.0923 60.4113 77.0176C60.137 77.5562 59.4719 77.674 59.0669 78.0863C58.0485 79.1118 57.6148 80.607 56.4442 81.5019C55.3109 82.2919 53.8746 82.3996 52.658 83.01C52.3779 83.1192 52.2314 83.3878 52.072 83.6233C52.3994 83.8862 52.8131 83.6909 53.188 83.6894C57.9436 83.1139 57.3955 83.1233 58.0356 82.5231C59.7764 80.811 60.756 78.4927 62.4782 76.765C63.251 75.9794 64.3383 75.6777 65.2561 75.1133C65.9197 74.7312 66.51 74.2113 67.2512 73.9772C67.2469 74.0691 67.2383 74.253 67.2339 74.3449C66.6738 74.7873 66.0533 75.2095 65.7114 75.8573C65.0996 76.8311 64.841 77.9817 64.209 78.944C63.1492 80.648 59.4703 81.1084 59.1345 82.5434C60.3731 82.6534 64.7382 80.9291 65.9528 80.3932C67.7691 77.8377 67.1186 74.1098 71.4252 71.2178C71.9911 70.8545 72.1993 70.0142 72.929 69.9237C72.7294 70.3962 72.2453 70.6979 72.1189 71.2063C71.1582 74.8205 70.885 75.903 70.1669 76.9902C69.285 77.7988 68.1331 78.2757 67.3216 79.1705C67.165 79.3443 67.1234 79.5813 67.063 79.7996C68.8003 79.1921 72.4084 76.9952 72.7579 76.532C72.9652 75.8495 73.0903 73.2683 73.4517 71.4732C73.693 70.3026 74.3436 69.2742 74.9785 68.2788C75.4395 67.5147 76.2065 66.9861 76.626 66.1918C76.8113 65.827 77.0396 65.4794 77.3513 65.2108C77.3758 65.2812 77.4246 65.4205 77.449 65.4909C76.3235 66.9495 77.223 67.6539 76.5671 70.7737C76.4666 71.341 76.2152 71.8811 75.8144 72.2991C73.4338 74.9017 73.5452 75.1405 73.4876 75.9775C74.4523 75.6755 77.5978 72.8288 78.8581 71.535C78.6641 70.6746 78.7259 69.7884 78.578 68.9223C78.3969 66.3375 78.1669 65.5472 79.4268 62.5361C79.7127 61.7979 80.2973 61.2104 80.5027 60.4377C80.6621 60.0772 80.6678 59.5112 81.1519 59.4366C80.2596 61.4724 81.9706 64.7263 81.2668 66.5766C80.6923 67.9684 79.549 69.1649 79.4484 70.7233C80.2137 70.4658 83.0285 66.6431 84.0317 65.0542C84.0739 64.1249 83.1531 60.9251 83.0708 60.5211C82.6549 58.5732 82.1007 59.2411 82.6945 56.3055C82.9642 54.9722 83.2535 55.3757 83.6296 52.6702C83.7028 52.6443 83.8464 52.5941 83.9182 52.5696C83.9197 53.0437 83.7861 53.5234 83.8996 53.993C84.3851 55.5572 85.1262 57.0452 85.4422 58.6597C85.6749 60.0644 84.9409 61.3514 84.487 62.6269C84.4583 63.1037 84.3477 63.661 84.6493 64.0718C85.7869 62.2305 86.7349 60.2756 87.532 58.2633C87.7087 57.9487 87.4903 57.6169 87.4042 57.3124C86.709 55.5069 86.0526 53.6771 85.1477 51.965C84.0222 50.2059 85.0393 48.6051 84.8834 46.0373C84.9567 46.0272 85.1018 46.0042 85.1736 45.9927C85.1822 46.3116 85.1693 46.6333 85.2167 46.9493C85.9463 48.8266 87.5981 50.273 87.9543 52.304C87.843 53.3246 87.133 57.1018 88.1296 56.6747C88.3783 55.9203 90.0149 50.6778 89.53 50.0492C85.5278 43.8129 85.3715 45.0238 84.9596 42.7054C84.8088 42.0519 84.9295 41.3697 84.7672 40.7175C84.6738 40.2005 84.3808 39.646 84.6551 39.1376C84.8576 39.6647 84.9252 40.2737 85.3331 40.6974C86.1532 41.5994 87.0768 42.4038 87.8941 43.3086C90.0302 45.9271 88.4882 47.2307 89.553 48.9706C89.6162 49.1286 89.7254 49.1702 89.882 49.0941C90.0934 48.0954 90.303 44.4166 90.1362 42.5416C85.5699 37.854 84.5791 38.7869 83.5562 34.1695C83.4039 33.5202 82.9386 32.9758 82.9185 32.2907C83.3566 32.5722 83.3967 33.1554 83.8076 33.4642C85.1318 34.6376 86.8655 35.3372 87.9629 36.7692C89.0521 38.4416 89.1337 40.7761 90.0283 40.89C90.0321 39.1153 89.1662 35.3428 89.1522 35.205C87.1355 33.7155 84.9365 32.4989 82.8555 31.1086C81.873 30.1017 81.4694 28.6927 80.6593 27.5623C80.1695 27.0108 79.5375 26.5957 79.0952 25.9995C79.1756 25.9177 79.2575 25.8372 79.3393 25.7554C82.6263 28.4795 84.9475 28.1603 86.2081 30.478C86.694 31.1614 87.7697 33.8923 88.7016 33.694C88.1041 31.3743 87.2064 29.125 86.1032 27.0009C84.1757 26.1089 82.1218 25.5114 80.1338 24.7645C79.6441 24.5678 79.0796 24.4658 78.709 24.0607C77.8975 23.2348 77.2267 22.2855 76.4324 21.4452C75.9441 20.9353 75.2317 20.75 74.6844 20.3219C74.5193 20.22 74.5594 19.9988 74.5178 19.8393C75.3609 20.0821 76.069 20.6595 76.9308 20.852C78.3441 21.3116 79.8724 21.448 81.1924 22.172C82.9773 23.1466 83.7234 25.7166 85.4411 25.7987C84.4816 23.7649 83.1257 21.9364 81.7712 20.1483C81.4117 19.5076 78.7252 19.4755 74.0997 18.7191C73.2258 18.5735 71.7412 17.1504 70.8206 16.4282C70.2274 15.9628 69.4518 15.8924 68.7882 15.5735C68.5885 15.5017 68.521 15.2848 68.442 15.1125C69.3095 15.1584 70.1096 15.5822 70.9814 15.5994C72.2138 15.7631 73.4634 15.7588 74.6972 15.9053C77.2873 16.2578 77.9751 18.8785 80.4624 18.8742C80.4652 18.5209 80.1995 18.281 79.9884 18.0354C78.5118 16.5201 77.0411 14.9746 75.3361 13.715C72.4907 13.6699 67.5915 14.208 66.8761 13.9218C65.8592 13.5584 64.94 12.981 63.9848 12.4883C63.1891 11.9713 62.1908 12.1523 61.3204 11.8477C61.3118 11.7601 61.2931 11.582 61.2831 11.493C66.0425 11.6804 66.4396 10.8675 68.3858 11.1483C70.7895 11.7095 71.8861 13.6047 74.0593 12.8087C73.2486 11.9149 70.2098 10.1371 69.1499 9.55969C68.4621 9.44098 65.7599 10.2556 63.5698 9.3069C61.8663 8.50543 60.835 6.78615 59.1674 5.93729C58.2582 5.44462 57.191 5.7606 56.2302 5.47048C56.7113 4.74511 57.7096 4.91175 58.4493 4.6963C67.6829 4.01282 68.4615 8.59526 69.967 9.3931C71.0831 10.0366 72.1919 10.6959 73.2447 11.4398C73.453 11.5921 73.6785 11.7156 73.9226 11.8047C73.6454 9.86129 70.7195 9.45718 69.2488 5.8221C68.7356 4.51066 67.9089 4.46284 67.8584 3.74515C68.4057 3.70496 68.759 4.1631 69.1727 4.4389C69.8751 5.0091 70.8001 5.16855 71.5383 5.67989C73.7761 7.03839 74.2735 10.7909 74.8749 12.5426C75.3389 13.1272 76.0556 13.4461 76.5684 13.9876C77.5077 14.7676 78.3681 15.6337 79.2543 16.4725C79.6378 16.8732 79.9811 17.3213 80.4393 17.6431C80.5045 15.3041 77.2304 13.8638 76.8528 11.1839C76.7336 10.2172 76.5727 9.11989 75.741 8.48934C75.2757 8.00672 74.5 7.76255 74.3047 7.07023C74.9654 6.91221 75.3633 7.49109 75.774 7.88894C76.7421 8.89581 77.9932 9.57374 78.9713 10.5706C81.471 13.2452 80.9034 16.8003 81.2019 18.5551C82.3984 20.0474 83.5877 21.5513 84.5989 23.18C84.8215 23.5047 84.9666 23.9169 85.3472 24.0964C85.4558 22.1565 83.3047 20.6835 83.3047 17.6729C83.3076 16.7365 83.3076 15.7813 82.9887 14.8893C82.6207 13.8901 81.3152 13.0856 81.2422 12.4145C81.4045 12.4059 81.5682 12.3973 81.7319 12.393C82.1355 12.8139 82.4961 13.2735 82.8264 13.7532C83.9065 15.1264 85.4994 16.1979 85.995 17.9545C86.4546 20.0429 85.8327 22.1644 85.9131 24.2698C85.7682 25.8525 86.779 26.2664 88.734 31.753C88.8087 31.7717 88.9567 31.8076 89.0313 31.8263C89.1479 29.6822 87.5839 28.005 88.3304 25.1546C88.4697 24.3 88.6924 23.4353 88.5689 22.5649C88.2802 21.3842 87.3825 20.4837 87.0033 19.3403C87.1742 19.3389 87.4241 19.1996 87.552 19.3805C88.3333 20.3256 88.7958 21.4761 89.4436 22.5074C90.1115 23.7225 90.8426 24.998 90.8569 26.4242C90.7693 28.7123 89.9319 30.8668 89.4105 33.0729C89.1536 34.1329 90.0177 35.2017 90.4088 39.2103C90.4935 39.2318 90.663 39.2735 90.7492 39.295C90.8885 37.8213 90.3858 36.3419 90.709 34.874C90.9761 33.5052 91.9112 32.382 92.1956 31.0175C92.3866 29.7205 91.542 28.5872 91.4343 27.3247C91.5334 27.3261 91.7345 27.3276 91.8336 27.329C92.1916 27.8368 93.9179 32.3964 93.4652 34.9802C92.7149 37.5126 90.9282 39.9139 90.6443 41.0704C90.8999 43.4863 90.7707 45.9223 90.5667 48.3367C91.7101 48.2296 90.9152 44.5755 92.7528 42.1087C95.2426 38.624 93.9466 38.5088 94.1949 35.9208C94.2882 35.9294 94.4749 35.9466 94.5669 35.9552C94.9216 37.0354 94.8857 38.1901 94.9719 39.3119C95.1586 40.2743 95.1055 41.2582 95.1113 42.2335C95.1824 43.9884 93.4637 45.9325 92.1654 47.5694C90.6423 49.536 90.3668 49.1072 90.1961 50.8399C89.9462 52.4644 89.4651 54.0401 89.1074 55.6401C89.85 55.4977 90.0113 53.1201 91.0809 51.6414C91.7894 50.3962 93.7059 49.7578 94.2035 48.0032C94.4017 47.2735 94.4591 46.5094 94.7048 45.7912C94.8183 45.5786 95.1615 45.7668 95.1055 45.988C94.9777 47.2692 94.577 48.5116 94.4736 49.7986C93.7359 52.7644 93.9049 52.4912 92.1108 54.1004C91.1283 55.0038 90.0468 55.788 88.9882 56.5982C88.5472 56.8984 88.4453 57.4557 88.2614 57.921C87.7328 59.4708 86.9256 60.9058 86.3022 62.4124C87.5668 62.3358 87.7479 58.5361 90.5164 57.7343C93.7287 56.6904 92.8748 54.9392 93.8832 54.4149C93.9593 54.7395 93.9191 55.0742 93.7898 55.3816C91.1485 61.8973 90.4739 60.7331 85.7707 63.2969C85.5824 63.5374 83.9491 66.5978 81.4704 69.4673C81.4316 69.5635 81.3554 69.7545 81.3181 69.8493C83.2123 69.2714 83.4013 66.9093 85.7492 65.8865C86.6569 65.5317 87.6681 65.4226 88.4926 64.8724C89.9804 63.8695 89.3698 64.1031 90.7304 62.2209C90.8237 62.2238 91.009 62.2295 91.1024 62.2324C91.1684 63.143 90.4661 63.8281 90.0682 64.5822C87.331 68.8796 87.7951 68.0743 81.1629 70.5819C80.7593 70.7427 80.3011 70.826 79.9909 71.1564C76.3022 75.0576 75.3744 74.9943 75.2381 75.7555C77.3941 75.3131 78.3664 72.8872 80.4965 72.4046C81.6053 72.1288 82.8162 72.5712 83.8819 72.0541C84.4636 71.6994 84.906 71.1622 85.4489 70.7557C85.7262 70.5804 85.8597 71.0386 85.7017 71.2167C85.1959 72.0379 82.3108 74.8369 80.7766 75.5085C79.1862 76.2606 74.4387 76.0957 73.8622 76.5182C72.3153 77.6357 70.6937 78.6569 68.9887 79.5173C68.7215 79.6566 68.4328 79.7815 68.2749 80.0545C68.6957 80.0689 69.1323 80.1048 69.5432 79.9827C70.9077 79.6336 71.7709 78.2619 73.1957 78.0637C74.3592 77.9847 75.5399 78.2016 76.6903 77.9546C78.5418 77.5987 77.6053 77.9623 79.7712 76.5944C79.8416 76.6389 79.9809 76.728 80.0513 76.7739C79.8042 77.5294 79.0473 77.923 78.4412 78.3596C76.8555 79.4584 75.2037 80.7655 73.1885 80.8359C67.0362 80.492 67.1686 80.3727 66.5772 80.7095C65.1653 81.3558 63.7088 81.9016 62.2323 82.3784C61.7842 82.5264 61.3217 82.6384 60.9008 82.8525C62.1503 83.7335 64.0749 82.4025 65.2773 82.0093C66.0156 81.781 66.7352 82.1658 67.4418 82.3339C68.4473 82.6212 69.5058 82.5336 70.5385 82.5135C71.4894 82.545 72.232 81.8571 73.1211 81.6387C73.1714 81.6962 73.2705 81.8111 73.3193 81.87C72.7548 82.5078 71.9318 82.8237 71.1576 83.1297C69.3163 83.8435 67.4418 84.6766 65.4265 84.6522C61.5617 84.1747 60.5319 83.3629 59.6882 83.1239C54.3591 84.5023 53.6661 83.8184 53.0813 84.4554C53.6616 84.6378 54.2706 84.8992 54.8882 84.7269C55.8305 84.5933 56.8101 84.1983 57.7508 84.5373C58.2622 84.7038 58.6773 85.0644 59.1685 85.2755C60.2169 85.7819 62.2212 86.134 64.6452 85.6504C64.6883 85.7179 64.7759 85.8529 64.819 85.9205C64.1597 86.4763 63.2462 86.4749 62.4375 86.6085C56.8898 87.6151 56.7641 87.1014 54.8621 86.2307C53.8222 85.7237 52.8225 85.1291 51.9133 84.4123C51.5341 84.3534 51.1492 84.3951 50.77 84.4138C51.0831 84.8519 51.6217 85.0357 52.0311 85.3704C56.3405 88.6191 56.2362 90.6944 60.172 90.7192C58.3508 91.3498 56.3974 91.6687 54.47 91.5624C53.4037 86.5512 50.415 84.4108 49.3553 84.5404C46.7529 85.3233 45.1691 88.8313 44.5306 91.5871C42.5945 91.6316 40.6353 91.3688 38.8127 90.7066C42.9103 90.6414 42.8646 88.3992 47.2112 85.211C47.5329 84.9525 47.9896 84.8204 48.1563 84.411C47.7326 84.4296 47.2313 84.2415 46.8851 84.5704C45.828 85.3848 44.6473 86.0269 43.4351 86.577C41.5995 87.5752 39.4306 87.0969 37.4788 86.781C36.4533 86.4764 35.3172 86.6028 34.3591 86.0743C34.3174 85.935 34.2844 85.7942 34.2614 85.652C35.0759 85.718 35.8744 85.9924 36.6975 85.9162C37.5693 85.797 38.4671 85.8071 39.3059 85.5069C40.2552 85.2383 40.995 84.4182 42.0176 84.3823C42.8435 84.4224 43.6407 84.6796 44.4579 84.7787C44.9362 84.8405 45.3858 84.6422 45.8325 84.5072C45.8397 84.4455 45.8541 84.3205 45.8612 84.2587C43.6551 84.0102 41.4517 83.6713 39.2972 83.114C37.5822 83.9442 35.7021 84.3664 33.8248 84.635C31.6358 84.7428 29.6048 83.7819 27.5984 83.0436C27.0023 82.7721 26.3588 82.5322 25.8992 82.0453C25.7225 81.8974 25.7857 81.5239 26.0715 81.6977C27.5201 82.2093 27.3456 82.7275 30.9364 82.4863C31.9174 82.39 32.8582 81.7107 33.8579 82.0525C35.4253 82.5057 35.8656 83.4143 37.8523 83.0407C37.8968 82.9675 37.9859 82.821 38.0304 82.7477C36.1043 82.2206 34.2199 81.5297 32.4069 80.688C31.8827 80.3892 31.2694 80.5199 30.6977 80.5429C29.3935 80.7024 28.0721 80.6104 26.7708 80.7871C25.9478 80.8905 25.1061 80.8187 24.3147 80.5702C22.7136 80.0135 19.6234 77.7794 19.1166 77.1848C19.0304 77.0067 19.0103 76.5887 19.3019 76.6232C20.2049 77.1782 20.8724 78.325 25.2066 78.0466C27.4249 77.8405 28.3573 80.4778 30.7466 80.0373C30.6087 79.8778 30.4464 79.7486 30.2597 79.6595C28.483 78.713 26.7507 77.6774 25.1162 76.5039C24.0347 76.1721 22.8669 76.2726 21.7552 76.0816C18.914 75.9049 17.9835 75.8264 15.642 73.6226C14.8046 72.8111 13.8394 72.103 13.2318 71.0875C13.2691 70.9812 13.3424 70.7701 13.3797 70.6638C14.0778 71.02 14.5115 71.7238 15.201 72.0929C16.3931 72.5942 17.7389 72.0441 18.9383 72.5267C20.8256 73.1903 21.7693 75.4324 23.8376 75.7111C23.7298 75.51 23.5934 75.3275 23.411 75.1911C21.8727 73.963 20.422 72.6272 19.0819 71.1866C18.5298 70.5115 12.8429 69.2063 11.373 67.8299C10.0746 66.5889 9.19271 65.0018 8.28637 63.4721C8.04939 63.0383 7.66873 62.481 8.12692 62.0602C9.17278 63.1561 8.9694 64.0118 10.7612 65.0161C11.712 65.5518 12.8568 65.5906 13.7947 66.1551C15.4648 67.0773 16.17 69.6158 17.8394 69.8781C17.4975 69.3194 17.0221 68.8612 16.6199 68.347C11.0074 60.9099 15.9491 64.9866 8.87974 61.1279C7.55617 60.3855 6.69535 58.571 5.7744 56.6566C5.47423 55.9356 4.97721 55.226 5.174 54.4045C5.88641 54.989 5.87208 56.0806 6.59163 56.6753C7.40457 57.5931 8.74758 57.5959 9.68116 58.3342C11.271 59.5259 11.5297 62.0733 12.7492 62.5341C12.7061 62.3244 12.6515 62.1175 12.5452 61.9308C10.3388 57.5349 10.6533 56.9972 10.1523 56.6954C5.11239 52.9247 5.10257 52.5324 4.6111 50.0824C4.25569 47.4121 3.81688 46.5572 3.97479 45.7132C4.06242 45.7117 4.23763 45.7089 4.32526 45.706C4.63405 46.8119 4.60105 48.0644 5.34503 49.0023C6.09769 50.0724 7.36163 50.6469 8.05109 51.7672C9.22066 53.6527 9.10327 55.4335 9.91259 55.5276C9.45297 53.7465 8.93877 51.9698 8.72474 50.137C8.64342 49.1383 6.47248 47.6367 4.42293 44.2093C3.64733 42.7242 3.89726 40.992 4.03941 39.3919C4.24482 38.2529 3.98626 37.0205 4.49327 35.9447C4.58952 35.9418 4.78054 35.9389 4.87531 35.9375C4.95141 36.9831 4.66128 38.0144 4.74172 39.0587C5.22583 41.5761 7.07705 42.0245 7.49374 45.3784C7.68459 46.5313 7.72682 48.1945 8.44889 48.1993C8.34117 46.2588 8.09842 44.3097 8.29235 42.3622C8.28088 41.7302 8.5279 41.0322 8.17172 40.4562C5.63033 35.6327 4.75649 34.8014 6.03015 30.629C6.34186 29.6165 6.54007 28.5579 7.03417 27.6113C7.13904 27.3987 7.36164 27.2939 7.54837 27.1661C7.63024 28.3482 6.79143 29.3967 6.78858 30.5759C6.91069 32.153 8.04538 33.4012 8.32974 34.9309C8.58951 37.9068 7.89587 38.5165 8.40585 39.3461C8.82873 38.8254 8.41749 38.7447 9.57502 34.1552C9.80052 33.0636 9.31076 32.0194 9.03782 30.9867C7.75081 25.6992 7.71232 25.8408 10.1869 21.4511C10.6178 20.7401 10.9366 19.9473 11.514 19.3354C11.6677 19.2952 11.8243 19.2708 11.9851 19.2636C11.7309 20.5692 10.5316 21.5014 10.4239 22.8558C10.3549 24.351 11.0458 25.7902 10.8418 27.2912C10.7872 28.854 9.86081 30.2745 10.0375 31.8616C10.105 31.8516 10.2415 31.8315 10.3104 31.8214C10.9022 29.7976 11.8343 27.8902 12.755 26.0003C13.4424 24.6194 12.8699 21.471 12.8987 20.2477C12.9469 17.9732 12.4704 17.5736 15.5717 14.4924C16.1979 13.8662 16.5987 13.046 17.2694 12.46C17.4174 12.4112 17.5696 12.3753 17.7262 12.3566C17.6874 12.5764 17.7133 12.8407 17.5208 12.9986C15.5851 15.0621 15.9157 14.7785 15.688 17.8132C15.781 20.3475 13.6352 22.2423 13.6628 24.0424C14.2628 23.9106 13.7186 23.7074 17.7822 18.6159C18.0896 17.3884 17.6815 14.4374 19.0792 11.8135C19.7672 10.6257 20.9034 9.79979 21.9763 8.98399C22.7045 8.48127 23.2632 7.78034 23.9512 7.23023C24.125 7.06793 24.3707 7.0593 24.5904 7.00616C24.5904 7.11103 24.5918 7.32214 24.5918 7.42844C24.0216 7.96707 23.3091 8.35345 22.8194 8.97537C22.051 10.0397 22.3684 11.4775 21.6947 12.5777C20.669 14.4131 18.6645 15.6586 18.5851 17.5876C19.0491 17.3233 19.3651 16.8766 19.7385 16.5061C20.4868 15.7692 21.2222 15.0166 22.0366 14.3487C22.6671 13.7253 23.4442 13.27 24.059 12.6323C24.7618 11.4233 24.8789 7.00929 27.8997 5.43786C28.5507 5.06889 29.3033 4.88649 29.8936 4.40963L29.8938 4.40908Z" fill="white"/>
<path d="M48.6751 14.8394C49.218 14.7963 49.7624 14.8107 50.3053 14.8452C50.4618 16.3232 50.2995 17.8198 50.3929 19.3035C51.3667 18.3326 51.9729 17.0342 52.9611 16.0761C52.8652 26.7351 53.1086 26.7702 52.8232 27.1946C52.0246 28.3021 51.1513 29.3577 50.3987 30.4953C50.3412 31.2049 50.3312 31.936 50.4216 32.6441C53.391 29.9461 55.9026 30.7874 61.1882 30.1635C63.3384 29.8231 65.6207 29.3549 67.307 27.8755C67.8686 27.3886 68.1199 26.6762 68.288 25.9752C68.9358 25.2255 70.2127 25.0905 70.961 25.767C71.4925 26.4248 71.4566 27.4216 70.9682 28.0938C70.6077 28.5204 70.0576 28.6999 69.5951 28.9872C69.7122 29.2927 79.9526 52.3153 80.6345 52.8819C74.138 59.5377 63.6136 59.0605 57.7825 52.8618C58.4721 52.5917 57.5035 54.3379 68.2532 30.6648C68.4571 30.2224 68.6711 29.7829 68.8119 29.3161C63.0083 30.7182 52.755 31.3939 50.4413 36.7378C50.338 36.9828 50.3205 69.3873 50.4126 70.2285C51.1552 69.8278 51.9006 69.4314 52.6633 69.0708C51.7814 71.2698 50.6941 73.3826 49.7619 75.5629C49.6643 75.6893 49.6571 76.0542 49.4273 75.9062C48.3945 73.621 47.3403 71.3458 46.3162 69.0561C47.1263 69.385 47.8487 69.9006 48.6646 70.2238C48.6845 65.151 48.6873 38.97 48.6631 36.9154C46.5148 31.36 35.3505 30.5924 30.2223 29.3141C30.3272 29.7293 29.7027 28.3119 40.5683 52.2568C40.6645 52.567 40.9044 52.7624 41.1874 52.8988C35.2547 59.2663 24.4124 59.3042 18.4358 52.883C18.9966 52.3851 29.0849 29.8377 29.4138 28.9866C28.9656 28.7209 28.4672 28.5112 28.0895 28.1464C26.8007 26.4096 28.5833 24.2999 30.6706 25.8497C31.0242 26.6121 30.7808 28.0842 34.4654 29.3974C40.0313 31.3104 44.5863 29.3738 47.951 32.1336C48.1822 32.316 48.412 32.4999 48.6619 32.6565C48.6792 31.9685 48.6921 31.279 48.672 30.591C47.9064 29.363 46.9326 28.2699 46.1311 27.0648C46.0721 26.6812 46.1051 16.1203 46.1053 16.0654C47.3658 17.5395 48.1077 18.9111 48.6591 19.3116C48.7078 17.8207 48.6633 16.3298 48.6748 14.8389M49.1373 15.7639C49.2005 16.4777 48.9951 17.2376 49.2738 17.9155C49.9438 17.6183 49.8652 18.5242 49.8526 15.7136C49.6142 15.7308 49.3757 15.7452 49.1373 15.7639ZM50.5765 20.3444C50.2289 20.7307 50.3496 21.2909 50.3036 21.7649C50.3769 21.7448 50.5205 21.7046 50.5938 21.6845C51.1037 21.0769 51.536 20.4018 52.0344 19.7813C52.428 19.3318 52.2599 18.6955 52.2484 18.154C51.6408 18.8434 51.1482 19.6248 50.5765 20.3444ZM46.7013 18.2602C46.7013 18.6365 46.684 19.0129 46.7085 19.3891C47.0718 20.0168 47.5674 20.5555 47.984 21.1472C48.1807 21.4072 48.32 21.7691 48.6949 21.7993C48.6777 21.3899 48.7495 20.9633 48.6317 20.5669C48.2899 20.0441 47.869 19.5801 47.5243 19.0602C47.2959 18.7515 47.1207 18.3364 46.7013 18.2602ZM51.5345 21.6011C51.1453 22.1699 50.6741 22.6812 50.3151 23.2701C50.2749 23.6048 50.2878 23.9437 50.2878 24.2813C50.3625 24.2482 50.5105 24.1836 50.5851 24.152C52.7396 21.2037 52.2479 22.23 52.2843 20.7724C51.9252 20.9332 51.7586 21.3024 51.5345 21.6011ZM46.697 20.8054C46.7042 21.1358 46.6568 21.4776 46.7372 21.8037C47.0302 22.3179 47.4381 22.753 47.7742 23.2371C48.0414 23.6062 48.2655 24.0314 48.6762 24.2641C48.6891 23.9308 48.7078 23.5948 48.6676 23.263C48.1965 22.4342 47.5602 21.7189 46.99 20.9605C46.9167 20.9218 46.7702 20.8442 46.697 20.8054ZM46.7099 23.1911C46.6927 23.5488 46.6783 23.9093 46.7128 24.267C47.0374 24.7625 47.4381 25.2049 47.757 25.7048C48.004 26.0337 48.2152 26.4717 48.6676 26.5379C48.6604 26.219 48.7207 25.8929 48.6532 25.5784C47.1619 23.4573 47.042 23.3453 46.7099 23.1911ZM51.2846 24.3646C50.9959 24.7883 50.6598 25.179 50.3754 25.6056C50.3467 25.946 50.3625 26.2879 50.3711 26.6297C50.532 26.5435 50.7043 26.4602 50.7977 26.2936C51.2746 25.6042 51.829 24.9708 52.2915 24.2727C52.326 23.8949 52.3001 23.5143 52.2685 23.138C51.8348 23.454 51.5949 23.9423 51.2846 24.3646ZM51.2947 26.8107C50.9701 27.2617 50.5866 27.6725 50.3195 28.1623C50.2649 28.4668 50.3525 28.7741 50.3798 29.0772C51.0693 28.6133 51.4082 27.7845 51.9655 27.1798C52.3978 26.7805 52.2959 26.1758 52.2714 25.6501C51.839 25.936 51.6093 26.4157 51.2947 26.8107ZM46.6912 25.732C46.6984 26.0508 46.6668 26.374 46.7243 26.6915C47.0158 27.1698 47.3893 27.5906 47.6967 28.0589C47.9954 28.4424 48.2295 28.9092 48.6777 29.1433C48.6043 27.6514 49.1546 28.7869 47.2371 26.0997C47.1135 25.9001 46.9153 25.7809 46.6912 25.732ZM19.8189 51.3546C19.6207 51.8171 19.3507 52.258 19.2731 52.7637C26.2622 52.7881 33.2512 52.7795 40.2408 52.768C39.8943 51.7725 30.0287 30.0345 29.6922 29.6617C26.3728 36.8791 23.1122 44.1241 19.8189 51.3547M69.1852 29.7408C58.3055 53.7129 58.8886 52.3007 58.8195 52.7707C65.8085 52.7822 72.7975 52.7808 79.7871 52.7693C79.6251 52.1905 73.7266 39.3414 69.5388 30.0825C69.4671 29.9173 69.4067 29.7148 69.1855 29.7407L69.1852 29.7408Z" fill="white"/>
</svg>
